<?xml version="1.0" encoding="utf-8"?>
<!-- Generator: Adobe Adobe Illustrator 29.2.0, SVG Export Plug-In . SVG Version: 6.00 Build 0)  -->
<svg version="1.1" id="Layer_1" xmlns="http://www.w3.org/2000/svg" xmlns:xlink="http://www.w3.org/1999/xlink" x="0px" y="0px"
	 width="335.33px" height="384.14px" viewBox="0 0 335.33 384.14" style="enable-background:new 0 0 335.33 384.14;"
	 xml:space="preserve">
<style type="text/css">
	.st0{fill:#DB506D;}
	.st1{fill:#F4DCB5;}
	.st2{fill:#F7E2C1;}
	.st3{fill:#F7E0BB;}
	.st4{fill:#F4DBB3;}
	.st5{fill:#D45369;}
	.st6{fill:#F4DDB6;}
	.st7{fill:#D8526B;}
	.st8{fill:#D6546C;}
	.st9{fill:#F3D188;}
	.st10{fill:#F2D79A;}
	.st11{fill:#D54C67;}
	.st12{fill:#DA5773;}
	.st13{fill:#DB5975;}
	.st14{fill:#F2CD83;}
	.st15{fill:#D5546A;}
	.st16{fill:#892D47;}
	.st17{fill:#F1D89A;}
	.st18{fill:#EED394;}
	.st19{fill:#752943;}
	.st20{fill:#F1D087;}
	.st21{fill:#642341;}
	.st22{fill:#772742;}
	.st23{fill:#F1D594;}
	.st24{fill:#F2D595;}
	.st25{fill:#762742;}
	.st26{fill:#ECCE8B;}
	.st27{fill:#662541;}
	.st28{fill:#F8E1A8;}
	.st29{fill:#C33953;}
	.st30{fill:#C63752;}
	.st31{fill:#6A253F;}
	.st32{fill:#BD3752;}
	.st33{fill:#772945;}
	.st34{fill:#6A2540;}
	.st35{fill:#6A2440;}
	.st36{fill:#692843;}
	.st37{fill:#B33651;}
	.st38{fill:#99334D;}
	.st39{fill:#C33A55;}
	.st40{fill:#852F49;}
	.st41{fill:#B9354F;}
	.st42{fill:#AA334E;}
	.st43{fill:#752743;}
	.st44{fill:#812C47;}
	.st45{fill:#58223F;}
	.st46{fill:#D7A96A;}
	.st47{fill:#942E49;}
	.st48{fill:#D9AB6D;}
	.st49{fill:#FBEDBD;}
	.st50{fill:#A6334C;}
	.st51{fill:#722C45;}
	.st52{fill:#98304A;}
	.st53{fill:#C33851;}
	.st54{fill:#A7334F;}
	.st55{fill:#A2304B;}
	.st56{fill:#682742;}
	.st57{fill:#56213E;}
	.st58{fill:#BF364F;}
	.st59{fill:#C43B56;}
	.st60{fill:#9C314C;}
	.st61{fill:#BE3752;}
	.st62{fill:#64223E;}
	.st63{fill:#C23851;}
	.st64{fill:#B63652;}
	.st65{fill:#4C1D3C;}
	.st66{fill:#C93B57;}
	.st67{fill:#DEB778;}
	.st68{fill:#A9324F;}
	.st69{fill:#CE3D57;}
	.st70{fill:#F3E2A1;}
	.st71{fill:#642440;}
	.st72{fill:#BE3851;}
	.st73{fill:#4E203C;}
	.st74{fill:#C23A55;}
	.st75{fill:#CD7740;}
	.st76{fill:#6E2742;}
	.st77{fill:#C63D59;}
	.st78{fill:#441E3C;}
	.st79{fill:#2B1D40;}
	.st80{fill:#4D2040;}
	.st81{fill:#50203C;}
</style>
<g>
	<path class="st0" d="M256.53,164.55c-0.59-3.91-1.03-7.44-4.42-9.52c-2.48-1.53-1.94-3.74-1.75-6.07
		c1.1-13.46-3.05-19.67-16.01-23.6c-3.08-0.93-3.41-4.34-5.67-5.46c-6.02-3.01-8.86-8.37-12.3-13.72
		c-4.87-7.56-12.99-8.36-21.46-7.13c-1.04-1.94-1.88-3.82-3-5.52c-6.03-9.18-16.58-11.16-24.72-3.98c-3.66,3.23-7.1,5.99-11.96,7.1
		c-3.1,0.71-5.17,3.42-7.59,5.85c-0.67-0.37-1.43-0.65-2.02-1.13c-12.58-10.34-27.7-5.79-32.85,9.92c-1.48,4.51-3.54,7.05-9.03,4.69
		c-10.35-4.44-21.67,3.22-21.91,14.44c-0.02,1.04-0.13,2.07-0.21,3.25c-10.07,3.25-14.53,10.04-13.03,20.54
		c0.03,0.2,0.2,0.5,0.12,0.59c-8.5,9.63-1.12,19.39,0.3,28.78c3.64,24.12,8.42,48.07,12.78,72.31c-1.95,0.3-2.45-1.31-3.29-2.2
		c-11.5-12.43-23.45-24.49-34.31-37.46c-15.79-18.84-28.81-39.55-34.32-63.87C3.62,124.71,8.8,99.26,27.24,77.12
		c27.25-32.71,73.9-34.32,105.14-14.24c9.31,5.99,18.51,12.94,24.29,23.07c0.69,1.21,1.39,2.66,3.35,2.78
		c2.31-0.62,3.21-2.94,4.64-4.64c18.46-21.95,41.49-34.68,70.67-34.09c18.27,0.37,35.02,5.97,49.04,18.05
		c22.1,19.03,31.18,43.27,29.09,72.31c-1.36,18.94-9.01,35.18-19.12,51.13c-3.86,1.95-4.54-0.61-5.11-3.14
		c-0.45-2.01,0.71-4.13-0.6-6.71c-7.95-0.61-14.44-4.83-19.92-10.86c-1.52-1.67-3.78-1.58-5.78-2.08
		C260.49,168.07,258.12,167.31,256.53,164.55z"/>
	<path class="st1" d="M81.5,272.06c4.37,7.53,5.64,15.77,6.25,23.62c1,12.91,7.35,19.09,19.37,22.28
		c16.91,4.48,33.51,10.13,50.23,15.32c12.06,3.75,24.02,4.48,36.34,0.69c17.94-5.52,35.93-10.83,52.3-20.27
		c5.3-3.06,12.09-5.47,11.83-13.17c-0.27-7.93-7.68-9-13.07-11.75c-2.55-1.31-5.37-2.07-8.39-3.2c0.62-7.15,1.73-13.61,7.44-19.09
		c7.84-7.52,14.77-15.99,22.17-23.98c1.51-1.63,2.52-3.9,5.13-4.48c-3.64,31.43-7.27,62.76-10.92,94.08
		c-0.24,2.08-0.62,4.15-1.07,6.19c-1.88,8.41-4.66,10.43-13.17,10.76c-25.02,0.95-49.64-3.3-74.4-5.66
		c-27.28-2.6-54.53-5.47-81.8-8.21c-21.23-2.13-42.47-4.1-63.68-6.45c-5.41-0.6-9.7-3.7-11.97-9.42c1.16-1.8,2.68-2.47,4.42-2.46
		c3.42,0.01,6.65-0.04,8.49-3.82c0.8-1.63,2.83-1.92,4.48-1.39c3.27,1.03,6.66,0.35,10.04,0.97c-1.33-0.79-2.95-0.72-4.07-1.83
		c-1.28-1.27-2.1-2.66-1.33-4.46c0.74-1.71,2.45-3.03,3.98-2.38c10.76,4.58,17.2-5.51,26.34-7.6c0.52-0.35,0.7-0.52,1.09-1
		c3.87-7.35,5.79-8.45,12.07-7.19C73.48,280.53,74.15,273.57,81.5,272.06z"/>
	<path class="st2" d="M85.69,41.03c-16.36,0.09-31.01,4.35-45.38,12.69c0.42-8.43,0.86-16.05,2.88-23.4
		c1.75-6.36,6.63-9.71,13.87-9.33c12.11,0.63,24.19,1.7,36.27,2.8c39.57,3.61,79.14,7.23,118.69,11
		c24.97,2.38,49.92,5.05,74.88,7.59c5.73,0.58,9.19,4.28,10.72,9.26c1.59,5.17,0.99,10.59-0.7,16.12
		c-35.96-38.69-98.17-35.26-136.94,8.33C140.22,54.39,116.61,40.5,85.69,41.03z"/>
	<path class="st3" d="M81.8,271.91c-4.71,2.78-5.72,8-2.28,13.04c1.38,2.03,3.01,3.89,4.49,5.77c-1.04,1.94-2.98,3.49-3.9,1.78
		c-4.51-8.35-6.89-1.13-9.82,1.17c-0.66,0.52-0.66,1.89-0.97,3.33c-4.8,5.89-13.86,3.2-18.08,10.41c-1.91,3.25-5.68,0.89-8.35-0.74
		c-1.86-1.13-4.04-2.66-5.29-0.05c-1.4,2.93,1.89,2.79,3.44,3.88c2.11,1.48,7.59-0.61,6.3,3.82c-1.31,4.54-4.71-0.31-7.14-0.09
		c-3.68,0.34-7.35,1.68-11.15-2.41c-0.86,11.46-8.63,6.1-14.39,7.01c-0.54,0-0.84-0.38-0.82-0.62c-0.05-0.64-0.22-1-0.62-1.58
		c-0.23-2.04-0.34-3.8-0.33-6.08c0.55-1.11,0.91-1.74,0.71-2.86c3.43-34.22,6.97-68.09,10.51-101.86c2.69-0.77,3.21,1.33,3.9,2.56
		c4.78,8.58,11.13,15.83,17.91,22.91c10.56,11.02,20.52,22.62,30.68,34.03C78.35,267.33,80.8,268.78,81.8,271.91z"/>
	<path class="st4" d="M161.49,284.26c-0.02-31.36,0.04-62.15,0.37-92.94c0.09-8.3,5.95-12.75,14.85-12.14
		c10.03,0.69,12.57,3.63,12.23,13.18c-1.52,43.32-4.56,86.54-7.67,129.76c-0.34,4.76-2.37,6.46-6.55,5.95
		c-3.91-0.48-7.75-1.55-12-2.65c-2.18-11.2-0.44-22.17-0.99-33.11C161.6,289.82,161.76,287.32,161.49,284.26z"/>
	<path class="st5" d="M157,284.9C157,298.2,157,310.87,157,324.5c-6.06-1.89-10.39-3.29-14.75-4.57c-3.59-1.05-3.13-4.23-3.33-6.71
		c-1.09-13.53-2.1-27.08-2.85-40.64c-1.49-27.11-2.76-54.22-4.19-81.33c-0.52-9.75,2.74-15.13,9.57-15.32
		c7.9-0.21,15.55,6.82,15.73,14.85c0.17,7.32-0.09,14.64-0.1,21.96C157.05,236.58,157.03,260.43,157,284.9z"/>
	<path class="st6" d="M127.07,193.24c1.95,29.37,3.96,58.15,5.76,86.95c0.77,12.27,2.6,24.5,1.69,36.83
		c-0.47,0.04-0.7,0.12-0.89,0.07c-5.18-1.53-11.53-1.75-15.22-4.99c-3.82-3.35-2.27-10.11-2.91-15.4
		c-4.58-37.52-9.15-75.05-13.63-112.59c-0.93-7.75,0.95-9.94,8.78-9.84C121.74,174.42,126.71,177.93,127.07,193.24z"/>
	<path class="st7" d="M256.11,164.54c3.76,0.68,6.94,2.85,10.91,2.34c1.5-0.19,2.63,1,3.66,2.09c8.64,9.16,10.49,10.04,21.04,10.03
		c3.34,3.88-4.68,9.13,1.96,12.75c-5.48,15.04-16.57,26.11-27.39,37.43c-8.5,8.89-16.63,18.13-26.41,26.63
		C245.2,225.53,250.53,195.24,256.11,164.54z"/>
	<path class="st8" d="M74.29,169.36c0.09-2.21,1.23-2.41,2.58-2.52c9.11-0.78,16.79,4.76,18.02,13.87
		c3.79,28.1,7.3,56.24,10.88,84.36c1.5,11.8,2.94,23.61,4.37,35.43c0.35,2.88,0.56,5.77,0.84,8.72
		c-10.72-0.71-12.65-2.24-14.51-11.92c-4.85-25.17-10.77-50.21-14.01-75.59C80.23,204.32,76.87,187.19,74.29,169.36z"/>
	<path class="st9" d="M126.89,140.07c0.12-0.42-0.04-0.74,0.09-0.87c0.8-0.71,0.77-1.57,1.13-2.72c2.29-7.51,7.6-4.17,12.58-3.66
		c-0.67-3.89-2.68-7.95,2.19-10.3c4.28-2.06,7.96-1.06,11.75,1.27c1.2,0.74,2.2,1.64,2.23,2.73c0.2,6.01,2.62,6.27,7.48,3.83
		c4.58-2.3,10.29,1.47,12.41,7.4c1.66,4.66-0.62,8.57-6.17,10.27c-2.17,0.66-4.44,0.96-7.35,1.56c2.66,5.68,4.08,11.85-2.97,15.06
		c-6,2.73-12.67,5.1-19,0.52c-4.18-3.02-4.29-7.24-2.23-11.77c-2.59-1.15-3.89-0.09-4.43,2.85c-3.07,1.49-3.6-0.09-3.13-2.52
		c0.45-2.33,0.68-4.45-2.53-5.62c-0.32-0.27-0.65-0.43-0.68-0.6c-0.14-1.06-0.49-1.9-0.95-3.07c-0.52-0.99-0.72-1.69-0.77-2.73
		C126.7,141.07,126.74,140.78,126.89,140.07z"/>
	<path class="st10" d="M205.34,136.04c-5.51-0.3-10.65-0.78-15.03,3.32c-2.74,2.56-3.87,0.01-5.09-2.1
		c1.44-1.36,4.41-0.44,4.72-4.27c-6.63-2.14-10.01-7.04-9.35-14.76c0.17-1.97-2.04-3.94-5.06-4.17c-0.29,2.71-0.57,5.29-0.86,7.97
		c-6.17,1.22-11.8,1.99-15.73-4.6c-1.45-2.43-4.66-3.36-7.44-4.17c2.51-8.28,2.51-8.28,16.19-8.4c2.23-8.76,5.38-11.91,11.38-11.37
		c5.78,0.52,7.98,3.65,8.33,12.31c0.07,1.82-2.18,4.45,1.01,5.04c2.51,0.47,5.45,0.32,7.81-1.44c5.07-3.79,10.99-2.98,14.73,1.97
		c3.43,4.54-1.61,7.48-2.32,11.22c-1.13,5.91-7.02,6.17-12.41,6.79c1.7,3.65,3.1,6.84,8.34,5.15
		C205.5,134.83,205.67,135.26,205.34,136.04z"/>
	<path class="st11" d="M254.18,356.1c1.7-0.91,2.97-1.61,4.28-2.33c0.06,15.96-9.12,22.65-23.66,17.51
		c-19.12-6.76-39.39-8.96-58.79-14.63c-8.28-2.42-16.68-4.41-24.93-6.97c13.74-1.79,27.06,1.15,40.49,2.51
		c17.22,1.74,34.43,3.62,51.65,5.41C246.82,357.97,250.28,357,254.18,356.1z"/>
	<path class="st12" d="M102.39,4c28.28,5.32,55.31,13.41,82.77,20.02c-34.4-0.77-68.37-6.61-102.62-5.74
		C80.96,6.57,87.8,1.76,102.39,4z"/>
	<path class="st13" d="M332.88,81.03c-3.39,13.38-6.7,26.27-10.06,39.38c-2.38-2.63-1.94-5.89-2.61-8.75
		c-2.19-9.42-5.24-18.65-10.69-26.5c-5.03-7.25-5.79-14.29-2.76-23.04C315.76,67.95,331.85,62.9,332.88,81.03z"/>
	<path class="st14" d="M205.41,136.44c-0.35-0.54-0.35-0.95-0.32-1.65c0.61-0.38,1.19-0.46,2.2-0.36c0.68,0.25,0.94,0.32,1.57,0.58
		c8.64,2.35,5.85,9.16,6.19,14.82c4.14,0.26,8.34-2.38,12.07,0.73c2.03,1.7,2.15,3.94,1.63,6.79c-2.51,1.11-5.07,0.83-5.96,4.32
		c-0.53,2.08-3.83,2.18-5.99,3.77c-3.1-0.84-0.13-4.71-3.89-5.29c-2.26,6.47-8.67,8.91-14.52,12.51c-1.43-2.13,0.16-4.88-1.89-7.08
		c-4.61,3.32-8.27,10.54-16.12,4.92c-2.2-3.1,0.23-4.13,1.94-5.45c4.32-3.35,9.13-6.18,11.81-11.67c0.34-3.11,0.08-6.09,1.2-8.41
		c1.99-4.13,4.64-8.09,10.35-7.31c0.15,0.02,0.33-0.15,0.5-0.23C206.03,137.13,205.88,136.86,205.41,136.44z"/>
	<path class="st15" d="M285.22,251.92c-4.15,15.71-8.14,30.93-12.14,46.15c-0.35-0.09-0.7-0.18-1.05-0.27
		c2.19-18.2,5.35-36.36,6.24-54.62c0.66-13.59,7.63-23.21,15.74-33.54C292.36,224.17,288.72,237.77,285.22,251.92z"/>
	<path class="st16" d="M229.53,172.12c1.63-5.25,4.31-8.32,10.11-5.22c1.9,1.02,3.69-1.96,6.78-0.24
		c-1.03,11.54-1.59,23.52-6.7,35.1c-2.24,1.25-4.13,1.13-6.43,0.03c-0.83-0.72-1.13-1.24-1.19-2.27c0.36-1.01,0.81-1.51,1.19-2.2
		c-0.14,0.08-0.28,0.3-0.53,0.83c-0.94,1.24-1.31,2.63-3.23,2.62c-3.71-0.75-4.62-2.72-2.97-5.53c1.85-3.14,2.01-6.23,0.57-9.78
		c1.82-1.31,5.01-1.12,5.55-4.65C229.92,178.44,231.68,174.77,229.53,172.12z"/>
	<path class="st17" d="M114.13,134.31c0.29-1.49,0.66-2.98,0.12-3.47c-2.06-1.87-4.26-3.87-2.11-6.57c2.24-2.82,5.45-3.73,8.93-1.67
		c0.29,0.17,0.8-0.02,1.97-0.07c-3.23-3.5-4.07-7.34-2-11.23c2.14-4.01,5.58-6.6,10.02-7.93c4.19-1.26,6.58,1.7,9.36,3.68
		c2,1.43,2.43,3.63,0.65,5.36c-4.18,4.05-5.3,11.17-12.58,12.18c-3.74,0.52-6.33,2.98-7.41,6.79c-2.46-0.12-2.5-2.07-3.18-3.46
		c-4.78,2.95,1.32,8.49-2.96,11.52c-0.76,0.54,0.1,1.45,0.91,1.81c0.14,0.06,0.33-0.01,0.5-0.02c-0.89-0.64-1.56-0.06-2.57,0.51
		C110.81,139.36,112.31,137.06,114.13,134.31z"/>
	<path class="st18" d="M128.78,148.25c1.6-0.23,3.52-0.84,5.18,0.54c1.42,2.52-4.04,4.84,0.11,7.65c0.3,2.91,1.82,5.76-0.97,8.32
		c-0.65,0.6-0.94,4.28,2.91,5.62c-5.07,1.62-9.06,2.4-13.14-0.17c-3.77-2.37-7.84-3.81-12.6-3.54c-2.36-6.3,0.87-10.17,5.11-14.05
		c5.62-5.14,9.83,1.24,14.61,1.59C132.24,151.61,130.04,150.27,128.78,148.25z"/>
	<path class="st19" d="M216.42,181.43c0.38,0.2,0.62,0.16,0.75,0.18c0.69,0.04,1.12,0.29,1.64,1.11c4.2,1.72,2.34,4.7,1.82,7.6
		c-1.25,0.2-1.17,1.08-1.59,1.87c-0.1,0.32,0.05,0.45,0.03,0.54c-0.1,0.88-0.44,1.52-1.36,2.21c-0.97,0.43-1.66,0.5-2.66,0.53
		c-0.31,0.02-0.89,0.07-1.18,0.16c-0.48,0.19-0.67,0.29-1.13,0.58c-0.42,0.36-0.56,0.53-0.89,0.98c-0.3,0.47-0.43,0.65-0.76,1.1
		c-0.34,0.44-0.48,0.61-0.84,1.02c-0.54,0.55-0.81,0.89-1.2,1.57c-0.5,0.91-0.84,1.52-1.15,2.56c-0.26,0.58-0.38,0.8-0.72,1.34
		c-1.07,1.29-2.38,1.83-3.09,3.49c-0.36,0.59-0.52,0.82-0.98,1.37c-2.29,2-4.06,4.28-7.57,2.71c0.75-5.63-2.86-11.48,1.96-16.72
		c1.01-1.1-2.5-5.49,0.61-8.63c2.66-2.75,3.1-6.57,6.6-8.69c0.99-1.59,1.58-3.03,3.84-1.66c2.21,2.44,1.42,4.52-0.3,6.72
		c-0.15,0.18-0.13,0.55,0.12,0.49C211.29,183.52,213.34,181.44,216.42,181.43z"/>
	<path class="st20" d="M114.01,133.95c0.1,2.23-0.26,4.56-0.58,7.4c-3.51,5.41-7.01,10.33-10.62,15.19c-0.4,0.54-1.77,0.19-1.8,1.32
		c-0.05,1.73,2.46,4.5-1.31,4.71c-3.36,0.19-2.91-3.4-3.98-5.44c-0.09-0.17-0.3-0.28-0.86-0.65c-2.27-1.69-2.42-3.71-2.1-6.33
		c1.36-2.64,2.43-4.86,2.69-7.84c0.69-1.68,1.56-2.82,1.66-4.67c0.01-4.96-0.81-9.01-6.22-10.89c1.83-4.27,5.48-4.29,9.19-3.79
		c3.44,0.47,3.77,3.49,4.27,6.05C105.42,134.5,108.19,136.54,114.01,133.95z"/>
	<path class="st21" d="M207.84,278.32c-0.49,2.83,2.72,4.52,1.16,7.56c-1.07,1.12-1.84,1.97-3.5,1.76c-0.79-0.5-1.18-0.91-1.69-1.15
		c0.13,0.61,0.8,0.48,1.46,1.05c1.63,1.28,1.84,2.72,1.74,4.71c-2.84,5.03-7.1,6.77-12.67,6.74c-0.72-0.24-0.99-0.37-1.59-0.8
		c-1.46-2.54,1.04-3.58,1.36-5.7c-0.16-1.07-0.59-1.61-1.41-2.29c-4.21-1.89-2.8-5.25-2.77-8.16c0.03-2.45,0.09-4.9,0.17-7.91
		c1.12-1.73,1.88-3.28,4.02-3.75c1.16-0.13,1.94-0.03,3.07-0.29c4.31-2.68,6.49-7.72,12.25-8.16c3.86,4.8,2.44,9.41-0.21,14.08
		C208.11,276.55,208.26,277.36,207.84,278.32z"/>
	<path class="st22" d="M195.94,290.98c0.65,2.84-0.71,4.57-3.15,6.17c-0.29,0.32-0.59,0.64-0.75,0.79
		c-0.16,0.15-0.36,0.54-0.26,0.35c0.1-0.2,0.42-0.5,0.58-0.65c5.42,0.95,8.86-3.41,13.7-4.84c0.55-0.45,0.78-0.6,1.34-0.49
		c0.23,1.99,0.13,3.73-0.05,5.99c-3.22,3.09-6,5.91-6.99,10.51c-1.01,2.7-1.99,4.92-4.94,6.05c-0.33,4.75-2.96,6.4-7.84,6.65
		c0.37-8.36-1.38-16.67,2.06-25.05C191.77,294.36,192.36,291.26,195.94,290.98z"/>
	<path class="st23" d="M193.84,153.29c0.98,3.58,0.61,6.16-3.63,8.91c-3.31,2.14-7.26,4.06-10.15,7.65
		c-5.66-0.58-8.46-3.07-6.45-9.36c3.33-10.42,8.15-12.35,18.2-6.74C192.24,153.99,192.97,153.69,193.84,153.29z"/>
	<path class="st24" d="M94.6,148.69c-0.15,2.5-0.16,4.52-0.15,7.04c-4.65,2.79-9.11,5.3-14.27,1.13c-3.49-2.82-5.54-5.69-3.32-10.06
		c1.98-3.89,4.86-6.16,9.57-4.47c0.94,0.34,2.03,0.25,3.52,0.25C93.63,143.05,94.94,145.07,94.6,148.69z"/>
	<path class="st25" d="M231.08,250.81c2.12,0.39,3.11,1.5,2.83,3.11c-0.93,5.37-2,10.71-3.18,16.03c-0.11,0.49-1.36,0.72-2.51,1.12
		c-1.45,1.41-1.38,3.45-3.57,4.49c-2.57,0.49-4.51-0.07-6.57-1.68c-2.23-2.67-1.04-4.68,0.55-7.04c0.3-2.26,1.76-3.57,2.56-5.68
		c-0.08-4.27-4.39-8.13,0.45-12.36c3.28-0.02,3.88,3.45,6.52,4.28C229,252.37,229.32,250.96,231.08,250.81z"/>
	<path class="st26" d="M226.06,136.39c1.77,0.21,3.14,0.19,4.44-0.77c2.79-2.04,5.89-3.5,8.59-0.06c2.58,3.28,6.16,6.58,1.82,11.19
		c-1.5,1.6,0.47,5.37-3.82,5.68c-2.95-5.46-5.42-11.66-13.87-11.47c-3,0.07-1.23-4.25-2.59-6.51c-1.81-1.21-1.99-2.64-1.35-4.72
		c2.29-2.06,3.66-1.42,4.67,1.34c0.07,1.08,0.03,1.62-0.06,2.55C224.12,135.06,224.75,135.78,226.06,136.39z"/>
	<path class="st27" d="M195.43,271.27c-1.77,0.6-3.15,1.4-4.91,2.25c-0.73-4.36-0.14-8.7,0.79-13.46c0.54-0.62,0.73-0.96,0.37-1.47
		c-0.37-0.61-0.39-1.2-0.38-2.24c2.61-1.62,3.64-4.16,5.29-6.19c2.33-2.87,4.5-6.76,9.7-3.92c1.27,3.13-0.37,5.59-0.77,8.65
		c-1.39,3.38-3.09,6.09-5.29,8.97c-1.19,1.35-3.42,1.7-2.06,4.29c0.1,0.68,0.1,0.96-0.04,1.65
		C197.45,270.93,196.73,271.36,195.43,271.27z"/>
	<path class="st28" d="M94.84,148.91c-1.6-1.72-2.79-3.69-4.21-6.05c1.4-5.58-3.19-10.52-0.44-16.09c5.15-3.1,6.78-0.14,8.22,3.74
		c0.81,2.17,1.1,4.3,0.99,7.09c-0.73,1.38-0.59,2.7-1.95,3.6C96.72,143.87,97.69,146.7,94.84,148.91z"/>
	<path class="st29" d="M206.75,247.65c-4.92-2.74-6.59,1.38-8.62,3.71c-1.73,1.98-2.82,4.46-6.33,4.62c-0.2-0.7,0.05-1.34,0.48-2.27
		c0.74-3.71,2.24-6.9,2.79-10.75c0.4-0.6,0.6-0.81,1.17-1.22c1.87-0.57,3.69,0.08,5.01-1.94c0.7-0.68,1.15-1.02,2.01-1.5
		c2.69-0.57,4.54-1.72,6.09-3.45c1.38-1.53,2.76-3.12,5.48-1.78c-0.13,2.09-0.56,3.87-1.14,6.1c-0.25,3.96-1.86,6.59-5.24,8.57
		C207.73,247.86,207.44,247.86,206.75,247.65z"/>
	<path class="st30" d="M197.22,270.22c0.34-0.58,0.45-0.77,0.69-1.25c-0.56-1.82-0.32-3.31,0.54-5.12c1.79-2.96,3.39-5.59,5.2-8.57
		c1.22-1.75,1.6-3.55,3.43-4.8c2.02,0.08,3.23,0.87,4.28,2.59c0.14,0.43,0.06,1.05,0.07,1.36c0,0.31-0.44,0.63-0.71,0.69
		s-0.77,0.22-0.51,0.18c0.26-0.04,0.75-0.26,0.96-0.42c2.37,2.44-0.12,4.29-1.09,6.79c-4.44,3.21-8.25,6.52-12.14,10.35
		C197.12,271.8,196.9,271.27,197.22,270.22z"/>
	<path class="st31" d="M199.1,219.83c-0.72-0.85-1.12-1.41-1.56-2.34c-1.59-4.81,4.69-4.97,4.78-8.98c0.27-0.33,0.23-0.31,0.23-0.29
		c0.73-0.8,1.63-1.41,2.92-2.17c2.18-0.63,2.48-2.62,4.12-3.84c0.55-0.43,0.78-0.58,1.35-0.97c0.58-0.38,0.82-0.53,1.43-0.87
		c2.23-0.76,3.46-2.71,6.03-2.47c0.45,1.51,0.5,2.89,0.53,4.77c-0.35,0.85-0.52,1.25-0.57,2.06c-0.08,0.57-0.14,0.8-0.34,1.36
		c-0.25,0.56-0.34,0.78-0.91,1.61c-0.67,0.77-0.88,0.93-1.43,1.31c-0.59,0.32-0.84,0.44-1.48,0.68c-3.96,1.59-5.72,5.07-8.5,7.42
		C203.84,218.68,202.38,220.93,199.1,219.83z"/>
	<path class="st32" d="M203.77,239.37c-0.55,0.45-0.75,0.63-1.07,0.98c-0.57,0.87-1.2,0.93-2.21,0.54
		c-0.43-0.33-0.58-0.48-0.83-0.91c-0.11-0.27-0.09-0.78-0.09-0.78s-0.45,0.3-0.71,0.52c-0.65,0.48-1.09,0.67-1.93,0.86
		c-0.92,0-1.42-0.18-2.15-0.76c-0.42-0.87-0.4-1.41,0.12-2.18c0.35-0.24,0.32-0.33,0.37-0.31c1.38-2.74,3.47-4.94,5.74-7.51
		c0.42-0.56,0.6-0.77,1.11-1.25c2.39-1.66,4.94-2.35,6.74-4.86c0.75-0.72,1.23-1.07,2.14-1.6c2.68-0.98,4.74-1.14,5.69,2.1
		c-0.1,0.45-0.37,0.98-0.54,1.23C212.86,230.89,209.98,236.32,203.77,239.37z"/>
	<path class="st33" d="M238.51,218.09c-0.11,3.7-0.66,7.27-1.52,11.18c-3.76-0.15-6.03,1.52-8.02,4.6
		c-1.51,1.11-2.82,1.64-4.63,2.02c-5.6-4.26-0.47-6.64,1.69-9.86C229.57,222.13,233.44,219.47,238.51,218.09z"/>
	<path class="st34" d="M223.76,236.26c0.37-2.04,1.36-2.87,3.5-2.89c1.21-0.63,1.71-0.13,2.31,0.75c0.18,0.66,0.17,1,0.16,1.34
		c0,0.15,0.06,0.21,0.02,0.19c-0.76-0.35,0.56-1.23,0.42-0.75c1.46-1.75,2.97-2.52,5.27-1.81c1.94,3.81,0.93,7.29-0.32,11.26
		c-0.76,1.11-1.53,1.42-2.85,1.36c-1.23-0.33-1.92-0.8-2.88-1.6c-0.57-0.38-0.8-0.52-1.37-0.91c-1.95-1.74-4.27-0.44-6.26-1.99
		c-0.69-0.44-1-0.67-1.36-1.28c0.05-0.48,0.22-0.68,0.72-1.11C222.16,237.93,222.88,237.26,223.76,236.26z"/>
	<path class="st35" d="M219.17,292.62c-7.98-1.8-3.05-7.06-3.17-11.14c0.48-0.53,0.65-0.71,1.17-0.94c0.84-0.05,1.32-0.1,2.13-0.36
		c0.58-0.28,0.81-0.4,1.43-0.68c3.24-1.13,5.54-0.77,6.64,2.88c-0.31,1.73-0.79,3.01-0.69,4.75c-0.19,0.35-0.23,0.29-0.2,0.29
		c-0.56,0.52-0.64,1.27-1.04,2.27c-0.21,0.3-0.23,0.24-0.21,0.26C223.58,291.27,222.04,292.89,219.17,292.62z"/>
	<path class="st36" d="M195.42,315.27c0.71-2.12,1.81-4.08,3.22-6.33c1.94-3.18,3.33-6.31,7.55-6.7c2.44,4.7,0.71,9.1-1.58,12.34
		C203.25,316.48,199.08,318.69,195.42,315.27z"/>
	<path class="st37" d="M231.9,200.74c2.49-0.03,4.58-0.26,6.98,1.07c0.49,0.2,0.26,0.78,0.15,1.08c-0.75,5.07-4.62,7.77-7.47,11.66
		c-1,0.97-1.81,1.35-3.19,1.27c-0.87-0.32-1.31-0.49-1.95-0.97c-0.95-2.52-1.66-4.73-0.24-7.41c0.22-0.68,0.29-0.96,0.51-1.64
		c0.47-0.87,0.79-1.34,1.38-2.12C229.26,202.31,230.12,201.19,231.9,200.74z"/>
	<path class="st38" d="M228.57,241.87c0.65,0.28,0.9,0.3,1.54,0.34c0.58,0.66,0.41,1.36,1.05,2.14c1.16,0.26,2.06,0.33,3.4,0.44
		c0.46,0.92,0.48,1.79,0.48,3.11c-0.17,0.61-0.32,0.78-0.71,0.72c-0.25-0.23-0.3-0.2-0.29-0.23c-0.21-0.17-0.43-0.31-0.98-0.23
		c-0.7,0.83-1.07,1.45-1.51,2.43c-1.54,1.36-1.73,3.06-2.31,4.57c-3.37-0.86-6.53-1.86-7.1-6.37c-0.38-0.7-0.32-1.06,0.18-1.55
		C223.67,244.47,224.22,241.27,228.57,241.87z"/>
	<path class="st39" d="M198.67,219.93c5.5-1.59,7.79-6.48,11.09-10.01c1.51-1.62,2.63-2.29,4.99-1.87c1.71,2.36-0.39,4.02-0.87,6.41
		c-0.73,1.15-1.38,1.77-2.45,2.59c-4.12,2.97-7.03,6.77-11.74,8.96c-1.66,0.42-2.87,0.59-3.59-1.09
		C196.19,222.65,197.63,221.62,198.67,219.93z"/>
	<path class="st40" d="M216.71,181.16c-2.63,3.04-5.33,5.64-10.03,4.38c0.4-2.69,1.25-5.31,2.14-8.32
		C214.84,173.38,215.86,173.88,216.71,181.16z"/>
	<path class="st41" d="M221.16,295.96c1.33,0.13,2.24,0.2,3.57,0.25c1.32,8.71-7.96,6.56-11.24,11.12c1.22-3.11-1.47-6.53,1.53-9.51
		C216.88,296.31,218.66,295.57,221.16,295.96z"/>
	<path class="st42" d="M238.96,217.71c-3.7,3.36-6.89,6.95-12.12,8.12c-0.83-0.71-1.19-1.4-1.53-2.48
		c-0.37-1.65,0.15-2.65,1.25-3.87c2.04-1.33,3.57-2.61,5.24-4.39c2.13-1.79,3.89-3.43,6.85-3.29
		C239.03,213.71,239.01,215.45,238.96,217.71z"/>
	<path class="st43" d="M239.41,211.65c-2.15,1.54-3.95,2.76-6.15,4.04c-0.88,0.5-1.44,0.72-2.52,0.59c-0.62-0.41-0.8-0.67-0.77-1.34
		c1.73-4.92,4.8-8.27,8.6-11.56C241.17,205.69,240.38,208.51,239.41,211.65z"/>
	<path class="st44" d="M209.79,216.07c0.96-0.56,1.55-0.92,2.44-1.46c1.64-1.52,2.36-4.44,5.33-1.7c0.01,3.94-0.16,7.45-0.65,11.35
		c-1.42-1.47-2.88-2.02-5.19-0.72C209.21,221.59,206.08,219.77,209.79,216.07z"/>
	<path class="st45" d="M226.98,284.12c-0.72-4.14-3.15-4.1-6.51-3.15c-1.86-3.36-0.04-4.85,3.32-5.89c1.71-1.15,1.2-3.45,3.6-3.89
		c2.94,3.7,3.23,7.63,1.01,12.07C227.91,283.81,227.67,284.03,226.98,284.12z"/>
	<path class="st46" d="M220.7,128.84c-0.31,1.77-0.39,3.13-0.5,5.01c-3.6-0.7-6.15-3.31-9.47-5.76c3.29-2.71,5.79-6.12,9.47-0.77
		C220.49,127.98,220.7,128.2,220.7,128.84z"/>
	<path class="st47" d="M203.94,239.68c-0.56-0.44-0.78-1.16-0.68-1.21c5.61-2.68,6.88-9.41,12.3-12.72c1.02,2.24,0.86,4.5-0.23,7.16
		c-3.22-0.53-3.4,2.81-5.18,3.81C208.26,237.78,207.03,240,203.94,239.68z"/>
	<path class="st48" d="M216.67,165.89c2.28-3.68,6.15-6.18,6.2-10.85c2.77-0.53,2.88,2.68,5.31,2.7
		C224.29,160.06,223.38,166.98,216.67,165.89z"/>
	<path class="st49" d="M161.24,284.27c2.29,5.89,0.77,12.56,1.04,19.13c0.28,6.84,0.07,13.7,0.07,21.14
		c-2.52-1.18-0.66-3.81-1.36-6.46c-0.6-1.4-0.53-2.37-0.27-3.78C160.99,304.18,161.08,294.52,161.24,284.27z"/>
	<path class="st50" d="M229.43,235.85c-0.68-0.67-0.9-1.37-1.44-2.28c1.84-2.87,2.46-8.63,8.35-4.13c-0.01,1.15-0.33,2.11-0.62,3.46
		C233.8,234.15,232.25,235.94,229.43,235.85z"/>
	<path class="st51" d="M207.47,247.67c2.53-2.37,2.68-5.92,5.72-7.85c2.95,2.37,1.51,5.11,0.58,8.3c-1.16,1.65-2.42,2.42-4.52,2.25
		C207.95,249.8,207.48,249.06,207.47,247.67z"/>
	<path class="st52" d="M229.1,172.18c7.49-0.69,2.05,4.89,3.66,7.71c-1.55,0.35-3.24,1.12-5.04-0.43
		C228.11,177.3,228.53,174.93,229.1,172.18z"/>
	<path class="st53" d="M221.74,295.66c-1.35,3.35-3.72,1.86-6.11,1.82c0.67-1.42,1.76-2.82,2.96-4.58c1.66-1.97,3.6-2.74,6.21-3.01
		C225.63,292.67,223.11,293.57,221.74,295.66z"/>
	<path class="st54" d="M206.69,302.1c-3.1,1.49-4.61,4.38-7.39,6.36c-0.14-4.98,2.19-8.54,7.66-9.81
		C207.11,299.79,206.95,300.76,206.69,302.1z"/>
	<path class="st55" d="M223.84,274.76c-0.96,1.88-2.31,3.64-3.74,5.8c-0.08,0.4-0.05,0.46-0.03,0.48c-0.41,0.53-0.97,0.75-2.03,0.4
		c-0.61-0.28-0.83-0.28-1.39-0.3c0.02-2.3,0.38-4.58,0.9-7.2C219.94,272.23,221.62,273.85,223.84,274.76z"/>
	<path class="st56" d="M202.28,229.23c-0.25,4.28-3.42,5.92-6.55,8.03c-0.5-0.91-0.6-1.91-0.7-3.4c-0.67-1.74,0.09-2.69,0.94-4.01
		c0.28-0.33,0.31-0.26,0.28-0.28c0.41-0.59,0.97-1.02,2.15-1.43C200.01,227.95,201.04,228.16,202.28,229.23z"/>
	<path class="st57" d="M228.81,241.8c-2.65,0.75-3.16,3.97-5.89,5.1c-1.46-1.52-3.18-3.01-1.62-5.65
		C223.76,242.27,226.6,236.9,228.81,241.8z"/>
	<path class="st58" d="M219.02,197.69c-2.02,1.65-3.81,2.94-6.02,4.23c-0.91-0.42-1.24-0.94-1.5-2.01c0.24-2.94,1.78-4.33,4.43-5.3
		c1.15-0.5,1.86-0.84,2.84-1.48C220.53,194.28,220.27,195.79,219.02,197.69z"/>
	<path class="st59" d="M202.21,208.37c2.55,4.69-2.92,5.18-4.51,8.38c-3.03,0.26-2.85-1.74-2.61-4.17
		C198.08,212.19,199.84,210.15,202.21,208.37z"/>
	<path class="st60" d="M217.72,213.32c-1.77-1.24-3.15-0.27-4.85,0.96c-0.39-2.01,0.32-3.85,2.05-5.75c0.21-0.38,0.23-0.33,0.2-0.33
		c0.31-0.24,0.61-0.51,1.06-1.06c0.2-0.23,0.22-0.18,0.19-0.19c0.29-0.27,0.59-0.54,1.07-1.06c0.19-0.24,0.17-0.18,0.16-0.21
		c0.18-0.22,0.37-0.41,0.86-0.33c0.28,2.04,0.26,3.81,0.17,6.11c-0.18,0.76-0.31,1-0.68,1.53
		C217.71,213.3,217.71,213.3,217.72,213.32z"/>
	<path class="st56" d="M196.18,241.9c0.67,4.31-1.74,7.49-3.34,11.27c-2.35-2.9,1.05-5.91-0.22-9.42
		C193.28,242.1,194.16,241.18,196.18,241.9z"/>
	<path class="st40" d="M204.63,178.13c-1.35,2.86-2.01,6.51-5.71,8.51C198.87,182.92,199.73,179.36,204.63,178.13z"/>
	<path class="st61" d="M208.34,249.57c1.78-0.32,3.14-0.65,4.92-0.97c0.81,1.79,0.5,3.34-1.37,4.72c-1.8,0.09-3.03-0.38-4.08-1.97
		C207.34,250.43,207.45,249.96,208.34,249.57z"/>
	<path class="st62" d="M196.58,290.9c-2.11,1.82-4,3.38-6.25,5.12c0.35-1.64,1.06-3.46,1.94-5.67
		C193.96,289.71,195.85,287.1,196.58,290.9z"/>
	<path class="st63" d="M229.9,214.66c0.36,0.08,0.45,0.31,0.61,0.88c0.2,2.47-1.85,3.28-3.06,5.05c-0.92,0.76-1.44,1.31-2.04,2.11
		c-2.3-3.04-2.13-3.55,2.27-6.65C228.5,215.38,229.06,215.09,229.9,214.66z"/>
	<path class="st64" d="M232.46,200.39c-1.1,1.26-2.04,2.09-3.21,3.18c-0.41,0.75-0.67,1.21-1.3,1.9c-0.28,0.28-0.23,0.23-0.21,0.2
		c-0.47,0.61-0.91,1.31-2.09,1.35c-0.27-2.71,1.75-3.97,3.3-6.02c1.15-1.11,2.1-1.85,3.47-2.68
		C232.77,198.81,232.69,199.39,232.46,200.39z"/>
	<path class="st65" d="M225.13,207.17c0.77-0.7,1.37-1.02,2.3-1.44c-0.16,2.53-0.65,5.16-1.18,8.3
		C223.44,212.64,223.87,210.16,225.13,207.17z"/>
	<path class="st62" d="M207.71,292.54c-0.21,0.01-0.43-0.02-0.99-0.04c-0.77-1.37-1.21-2.74-1.6-4.63c0.97-0.88,1.91-1.25,3.2-1.68
		c0.41,0.5,0.47,1.06,0.53,2.05c-0.15,0.64-0.33,0.86-0.23,1.41c0.24,0.54,0.22,0.76,0.15,1.31c-0.23,0.53-0.42,0.72-0.87,1.23
		C207.63,292.49,207.7,292.51,207.71,292.54z"/>
	<path class="st66" d="M199.09,229.07c-0.91,0.53-1.47,0.61-2.46,0.59c-2.56-1.43-2.58-3.05-0.73-5.02
		c0.94,0.68,1.66,0.47,2.68,0.03C200.17,225.76,200.15,227.14,199.09,229.07z"/>
	<path class="st67" d="M220.84,129.27c-0.42-0.27-0.47-0.52-0.55-1.14c1.6-0.81,0.75-2.46,1.47-3.37c1.12-0.07,1.72,0.64,2.23,1.87
		c0.51,1.49,0.62,2.67,0.26,4.44c-0.25,0.55-0.21,0.49-0.2,0.52C223.11,130.85,222.16,130.08,220.84,129.27z"/>
	<path class="st67" d="M226.07,136.39c-0.54,0.39-0.88,2.11-1.95,1.22c-0.83-0.7-1.46-1.83-0.49-3.34
		C224.49,134.74,225.12,135.47,226.07,136.39z"/>
	<path class="st68" d="M221.07,261.01c0.43,1.74-0.02,3.5-2.01,5.13C216.43,263.58,219.67,262.84,221.07,261.01z"/>
	<path class="st47" d="M196.78,242.25c-1.27,0.25-2.34,0.54-3.81,0.97c-0.4-0.4-0.4-0.93-0.37-1.86c0.41-1.09,0.81-1.75,1.97-1.86
		c0.97,0.1,1.58,0.04,2.65-0.09c0.84,0.4,1.04,0.93,0.62,2.24C197.39,242.35,196.98,242.29,196.78,242.25z"/>
	<path class="st69" d="M219.15,182.7c-0.57,0.12-1.02-0.13-1.66-0.72c0.79-1.55,1.79-2.77,2.92-4.16
		C221.99,180.4,219.91,181.09,219.15,182.7z"/>
	<path class="st66" d="M195.83,229.56c0.79,1.19,0.08,2.09-0.65,3.41C192.85,231.87,193.67,230.68,195.83,229.56z"/>
	<path class="st56" d="M195,239.28c-0.65,0.69-1.23,1.01-2.08,1.5c-0.27-1.29-0.6-2.92,1.89-3.39
		C195.2,237.9,195.14,238.4,195,239.28z"/>
	<path class="st53" d="M226.4,284.27c0.39-0.35,0.66-0.41,1.33-0.58c0.12,1.06-0.16,2.22-0.85,3.58
		C226.41,286.5,225.31,285.6,226.4,284.27z"/>
	<path class="st29" d="M191.33,258.84c0.85-0.74,1.58-1.63,2.74-1.09c0.11,1.58-0.95,1.71-2.31,1.89
		C191.4,259.62,191.32,259.1,191.33,258.84z"/>
	<path class="st1" d="M13.27,307.65c1.39,0.46,2,1.25,0.07,2.31C13.01,309.34,13.03,308.64,13.27,307.65z"/>
	<path class="st70" d="M224.41,131.4c-0.4-0.94-0.39-2.09-0.4-3.83C225.5,128.15,225.47,129.61,224.41,131.4z"/>
	<path class="st71" d="M207.89,278.38c-0.09-0.69-0.77-1.84,0.7-2.39C208.63,276.78,208.4,277.47,207.89,278.38z"/>
	<path class="st18" d="M126.95,144.59c0.44,0.3,0.86,1.06,1.28,2.28C127.79,146.57,127.36,145.81,126.95,144.59z"/>
	<path class="st72" d="M219.21,192.24c-0.23-0.52-0.66-1.5,0.84-1.68C220.04,191.11,219.76,191.54,219.21,192.24z"/>
	<path class="st18" d="M127.88,136.35c0.17,0.55-0.01,1.34-0.48,2.43C127.25,138.25,127.39,137.42,127.88,136.35z"/>
	<path class="st39" d="M218.8,205.64c-0.03-0.02-0.62,0.01-0.91,0.01c-0.06-0.67,0.18-1.35,0.72-2.24c0.3-0.22,0.45,0.36,0.5,0.66
		c0.13,0.54,0.2,0.78,0.04,1.32C218.9,205.69,218.83,205.66,218.8,205.64z"/>
	<path class="st53" d="M225.62,289.83c-0.18-0.56,0.03-1.28,0.56-2.22C226.35,288.16,226.17,288.91,225.62,289.83z"/>
	<path class="st10" d="M209.02,134.99c-0.15,0.13-0.5,0.02-1.07-0.27C208.1,134.49,208.47,134.55,209.02,134.99z"/>
	<path class="st18" d="M126.8,139.89c0.21,0.15,0.17,0.54-0.03,1.19C126.64,140.95,126.62,140.54,126.8,139.89z"/>
	<path class="st31" d="M219.08,205.57c-0.15-0.11-0.13-0.34-0.02-0.89C219.49,204.71,219.52,205.07,219.08,205.57z"/>
	<path class="st44" d="M217.9,213.11c-0.13-0.18,0.02-0.51,0.47-0.96C218.46,212.33,218.3,212.64,217.9,213.11z"/>
	<path class="st1" d="M13.07,316.7c0.33-0.05,0.55,0.29,0.73,0.99C13.58,317.66,13.32,317.34,13.07,316.7z"/>
	<path class="st57" d="M221.19,238.71c0.07,0.21-0.17,0.47-0.69,0.81C220.41,239.3,220.63,239.02,221.19,238.71z"/>
	<path class="st25" d="M233.04,248.37c0.03-0.13,0.38-0.26,0.86-0.2C233.82,248.36,233.6,248.37,233.04,248.37z"/>
	<path class="st25" d="M234.15,248.57c-0.08-0.19,0.39-0.21,0.62-0.22c0.23-0.02-0.03,0.49-0.03,0.49S234.23,248.76,234.15,248.57z"
		/>
	<path class="st22" d="M208.92,289.64c-0.16-0.02-0.3-0.38-0.24-0.85C208.9,288.87,208.92,289.09,208.92,289.64z"/>
	<path class="st22" d="M207.89,292.36c-0.11-0.22,0.1-0.52,0.61-0.93C208.63,291.66,208.44,291.98,207.89,292.36z"/>
	<path class="st41" d="M225.21,296.24c0.01,0.02,0.26-0.43,0.26-0.43s-0.06,0.28-0.19,0.33
		C225.15,296.19,225.19,296.22,225.21,296.24z"/>
	<path class="st7" d="M279.75,170.1c0.15,0.92-0.34,1.32-0.84,0.79C278.41,170.36,278.83,169.9,279.75,170.1z"/>
	<path class="st3" d="M69.36,297.8c0.74-0.14,1.68-0.15,1.71,1.02c0,0.15-0.37,0.44-0.38,0.43C70.25,298.89,69.83,298.5,69.36,297.8
		z"/>
	<path class="st64" d="M234.44,195.6c-0.06-2.13,0.64-3.95,3.46-3.3C238.02,194.46,236.33,194.9,234.44,195.6z"/>
	<path class="st64" d="M234.13,195.76c-0.19,0.72-0.47,1.36-1.02,2.24c-0.27,0.23-0.38,0.14-0.43,0.1c0.18-0.72,0.42-1.39,0.92-2.31
		C233.88,195.54,234.05,195.68,234.13,195.76z"/>
	<path class="st72" d="M216.07,194.27c-0.77,1.45-1.84,2.71-3.16,4.22c-0.55,1.23-1.02,2.08-2.54,2.31
		c-0.83-0.73-0.93-1.37-0.42-2.39c0.4-0.56,0.44-0.77,0.41-1.29c0.3-1.11,0.87-1.75,1.92-2.53c0.33-0.28,0.35-0.22,0.32-0.22
		c0.28-0.26,0.58-0.53,1.07-1.02C214.51,193.44,215.14,193.76,216.07,194.27z"/>
	<path class="st73" d="M209.5,201.54c1.01-0.55,1.74-1.28,2.82-2.41c0.34,0.32,0.32,1.02,0.29,2.25c-0.02,0.53,0.02,0.54,0.02,0.52
		c-0.3,0.29-0.61,0.6-1.19,1.1c-1.61,1.41-2.97,2.61-4.71,3.89c-0.89-0.58-1.1-1.32-0.67-2.61c0.34-0.48,0.63-0.6,0.69-0.75
		c0.13-0.36,0.21-0.57,0.49-1.05c0.37-0.43,0.53-0.59,0.99-0.91C208.75,201.39,208.98,201.37,209.5,201.54z"/>
	<path class="st59" d="M206,204.03c0.39,0.46,0.39,1.17,0.36,2.4c-1,0.98-1.99,1.44-3.39,1.85
		C202.56,206.14,203.56,204.8,206,204.03z"/>
	<path class="st35" d="M207.73,202.89c-0.27,0.19-0.59,0.38-0.76,0.44c-0.01-1.03,0.15-2.13,0.49-3.61
		c0.49-0.67,0.81-0.94,1.39-1.41c0.24-0.2,0.85-0.2,1.16-0.22c0.18,0.78,0.06,1.59-0.15,3.01c-0.08,0.62-0.44,0.93-0.55,0.98
		C208.76,202.24,208.36,202.43,207.73,202.89z"/>
	<path class="st74" d="M212.2,194.34c-0.16,0.7-0.74,1.42-1.61,2.31C209.99,195.5,210.58,194.74,212.2,194.34z"/>
	<path class="st40" d="M206.38,185.64c-0.46,0.62-0.97,1.18-1.55,1.83c-0.91-1.46,0.1-1.56,1.1-1.92
		C206.24,185.48,206.34,185.58,206.38,185.64z"/>
	<path class="st74" d="M213.57,193.21c0.13,0.28-0.13,0.59-0.73,1C212.8,194.01,213.03,193.66,213.57,193.21z"/>
	<path class="st74" d="M208.78,198.22c0.01,0.19-0.28,0.5-0.86,0.96C207.91,199,208.19,198.67,208.78,198.22z"/>
	<path class="st75" d="M97.52,141.41c0.13-1.03,0.68-2.05,1.55-3.18C99.08,139.3,100.11,141.07,97.52,141.41z"/>
	<path class="st62" d="M205.06,287.47c-1.54,0.6-2.98,1.58-5.39,0.6c2.94-1.79,2.62-4.89,3.87-7.74c2.25,1.95,1.27,4.15,1.6,6.52
		C205.16,287.35,205.09,287.43,205.06,287.47z"/>
	<path class="st76" d="M197.15,269.98c0.32,0.39,0.34,0.92,0.4,1.85c-1.01,1.57-1.84,1.49-2.45-0.4
		C195.64,270.76,196.24,270.44,197.15,269.98z"/>
	<path class="st62" d="M191.51,298.58c-0.09-0.22,0.15-0.53,0.73-0.95c0.25-0.16,0.27-0.16,0.27-0.15
		C192.35,297.86,192.1,298.17,191.51,298.58z"/>
	<path class="st62" d="M191.25,298.73c0,0-0.29,0.45-0.29,0.45s0.03-0.34,0.15-0.39C191.25,298.73,191.25,298.73,191.25,298.73z"/>
	<path class="st77" d="M225.88,258.24c0.07,0.9-0.25,1.21-0.96,0.9C225.2,258.78,225.47,258.41,225.88,258.24z"/>
	<path class="st76" d="M198.22,263.61c1.49,1.5,1.01,3.05,0.08,4.83C193.86,267.23,194.44,265.53,198.22,263.61z"/>
	<path class="st78" d="M208.64,249.28c-0.26,0.5-0.56,0.78-0.9,1.43c-1.15,1.45-2.17,2.62-3.53,4c0.15-2.15-0.21-4.78,1.98-6.98
		c0.38-0.36,0.59-0.43,1.11-0.49C207.91,247.82,208.21,248.4,208.64,249.28z"/>
	<path class="st47" d="M199.63,239.32c1.01,0.43,1.63,0.77,2.59,1.14c-0.72,1.91-1.07,5.14-4.64,2.2c-0.19-0.31-0.04-0.52,0.03-0.62
		C198.36,241.13,198.05,239.75,199.63,239.32z"/>
	<path class="st61" d="M209.79,255.29c-0.05,0.57-0.32,1.26-0.7,2.26c-0.94-1.21-0.14-1.48,0.66-2.03
		C210.06,255.37,209.56,255.41,209.79,255.29z"/>
	<path class="st79" d="M210.22,255.04c-0.21,0.13-0.31,0.26-0.23,0.29c0.47-0.03,0.86-0.1,1.36-0.37c0.1-0.2,0.07-0.21,0.06-0.22
		c-0.01-0.01-0.51-0.04-0.51-0.04S210.43,254.9,210.22,255.04z"/>
	<path class="st58" d="M211.54,203.13c-0.1-0.31,0.15-0.69,0.74-1.16C212.38,202.27,212.14,202.67,211.54,203.13z"/>
	<path class="st39" d="M217.31,205.72c0.17,0.32-0.07,0.65-0.69,1.06C216.56,206.56,216.77,206.18,217.31,205.72z"/>
	<path class="st39" d="M216.05,206.98c0.17,0.32-0.08,0.65-0.69,1.06C215.3,207.81,215.51,207.43,216.05,206.98z"/>
	<path class="st60" d="M199.23,229.55c-0.46-1.35-0.43-2.67-0.39-4.49c4.13-2.61,7.17-6.01,10.89-9.16
		c-3.27,3.13,3.19,4.32,1.71,7.4c-0.18,0.64-0.34,0.87-0.76,1.17c-2.78,1.33-5.64,2.08-7.84,4.77c-0.24,0.37-0.27,0.37-0.26,0.39
		C201.64,229.62,200.68,229.6,199.23,229.55z"/>
	<path class="st56" d="M203.05,229.65c-1.4-6.34,3.88-4.12,7.07-5.17C208.81,227.18,206.28,228.61,203.05,229.65z"/>
	<path class="st29" d="M200.04,239.2c-0.61,0.92-1.21,1.64-2.08,2.55c-0.29-0.38-0.29-0.96-0.3-1.97c0.12-0.69,0.28-0.92,0.65-1.24
		c0.45-0.3,0.74-0.47,1.4-0.3C200.08,238.58,200.06,238.99,200.04,239.2z"/>
	<path class="st47" d="M199.96,238.33c-0.15,0.22-0.41,0.19-1.08,0.12C198.93,238.3,199.39,238.19,199.96,238.33z"/>
	<path class="st80" d="M231.41,244.22c-0.89,0.6-1.58,1.68-3.08,0.89c0.59-0.81,1.14-1.56,1.92-2.6
		C230.79,242.79,231.09,243.34,231.41,244.22z"/>
	<path class="st50" d="M228.97,235.86c-0.01-0.01-0.28,0.48-0.28,0.48s0.02-0.36,0.16-0.41
		C228.99,235.88,228.97,235.87,228.97,235.86z"/>
	<path class="st45" d="M217.54,281.48c0.66-0.36,1.2-0.4,2.15-0.44c0.37,1.29,0.25,2.8-1.25,2.94
		C216.96,284.12,216.97,282.9,217.54,281.48z"/>
	<path class="st65" d="M228.02,205.54c-0.07-0.22,0.21-0.66,0.75-1.41C228.8,204.32,228.58,204.82,228.02,205.54z"/>
	<path class="st81" d="M227.49,220.71c0.54-1.33,1.53-2.74,2.81-4.49c0.78-0.36,1.29-0.39,2.17-0.44
		C232.2,218.38,229.72,219.14,227.49,220.71z"/>
	<path class="st19" d="M207.81,203.05c0.01-0.25,0.36-0.52,1.05-0.86C208.84,202.43,208.49,202.72,207.81,203.05z"/>
</g>
</svg>
